<svg xmlns="http://www.w3.org/2000/svg" width="118" height="32" viewBox="0 0 118 32">
    <g fill="none" fill-rule="evenodd">
        <path fill="#C93" d="M18.649 9.995c.26-.5.618-.992 1.068-1.442 1.59-1.59 3.713-2.043 4.742-1.013 1.03 1.03.578 3.153-1.012 4.743a5.93 5.93 0 0 1-1.445 1.07c.367.83.555 1.719.564 2.61l.182.037c1.956-.42 4.02-1.541 5.772-3.293 3.672-3.672 4.584-8.715 2.036-11.263-2.548-2.547-7.59-1.636-11.263 2.037C17.541 5.233 16.42 7.296 16 9.252l.036.175c.892.01 1.782.199 2.613.568M13.317 22.07a5.978 5.978 0 0 1-1.034 1.377c-1.59 1.59-3.712 2.043-4.742 1.013-1.03-1.03-.578-3.154 1.012-4.743.43-.43.898-.775 1.374-1.032a6.611 6.611 0 0 1-.56-2.661L9.252 16c-1.956.42-4.02 1.541-5.771 3.294-3.672 3.672-4.584 8.714-2.037 11.262 2.548 2.548 7.59 1.636 11.263-2.036 1.752-1.752 2.874-3.816 3.293-5.772l-.025-.123a6.6 6.6 0 0 1-2.658-.555"/>
        <path fill="#C93" d="M28.52 19.293c-1.752-1.752-3.816-2.874-5.772-3.293l-.181.037a6.612 6.612 0 0 1-.547 2.619c.494.26.982.615 1.427 1.061 1.59 1.59 2.043 3.713 1.013 4.742-1.03 1.03-3.154.577-4.743-1.012a5.957 5.957 0 0 1-1.047-1.4c-.84.376-1.741.57-2.645.577l-.025.124c.42 1.956 1.541 4.02 3.294 5.771 3.672 3.673 8.714 4.584 11.262 2.036 2.548-2.547 1.636-7.59-2.036-11.262M9.945 13.325a5.96 5.96 0 0 1-1.392-1.042C6.963 10.693 6.51 8.57 7.54 7.54c1.03-1.03 3.153-.576 4.743 1.013.443.443.797.928 1.056 1.419a6.609 6.609 0 0 1 2.626-.546c.01-.058.022-.116.035-.174-.42-1.956-1.541-4.02-3.293-5.771C9.035-.192 3.992-1.103 1.444 1.444c-2.547 2.548-1.636 7.59 2.037 11.263C5.233 14.459 7.296 15.58 9.252 16l.117-.024c.006-.906.199-1.81.576-2.651M19.013 12.987a4.261 4.261 0 1 0-6.026 6.026 4.261 4.261 0 0 0 6.026-6.026"/>
        <path fill="#193661" d="M7.417 4.083a3.295 3.295 0 1 1-6.59 0 3.295 3.295 0 0 1 6.59 0M31.106 4.083a3.295 3.295 0 1 1-6.59 0 3.295 3.295 0 0 1 6.59 0M31.195 27.95a3.295 3.295 0 1 1-6.59.001 3.295 3.295 0 0 1 6.59 0M7.417 27.773a3.295 3.295 0 1 1-6.59 0 3.295 3.295 0 0 1 6.59 0M38.989 9.862c0-.69.233-1.215.701-1.575.467-.36 1.153-.54 2.057-.54v6.989h7.311V9.862c0-.69.238-1.215.712-1.575.476-.36 1.165-.54 2.07-.54v14.391c0 .675-.238 1.196-.713 1.564-.475.368-1.165.551-2.069.551V17.15h-7.31v4.99c0 .689-.234 1.214-.702 1.574-.467.36-1.153.54-2.057.54V9.862zM64.093 22.207c0 .66-.203 1.165-.61 1.517-.406.353-1.022.53-1.85.53v-1.426c.138-.168.314-.398.529-.69l-.138-.092a5.152 5.152 0 0 1-1.69 1.62c-.666.392-1.421.587-2.264.587-.798 0-1.514-.18-2.15-.54a3.815 3.815 0 0 1-1.483-1.494c-.352-.636-.528-1.36-.528-2.173V14c0-.582.21-1.004.632-1.264.421-.26 1.077-.391 1.966-.391v7.54c0 .66.19 1.177.574 1.552.383.376.95.563 1.701.563.813 0 1.472-.245 1.977-.735.506-.49.76-1.104.76-1.84V14c0-.582.21-1.004.631-1.264.421-.26 1.07-.391 1.943-.391v9.862zM66.415 14.39c0-1.363.812-2.045 2.437-2.045v1.402a3.974 3.974 0 0 0-.529.713l.115.092c.49-.72 1.003-1.268 1.54-1.644.536-.376 1.173-.563 1.909-.563 1.333 0 2.268.659 2.804 1.977.399-.628.888-1.115 1.472-1.46.582-.345 1.256-.517 2.022-.517 1.058 0 1.89.375 2.495 1.126.605.751.908 1.71.908 2.874v6.253c0 .583-.207 1.004-.621 1.265-.413.26-1.05.39-1.908.39v-7.701c0-.628-.138-1.122-.414-1.483-.275-.36-.697-.54-1.264-.54-.598 0-1.1.203-1.506.609-.406.406-.61 1.008-.61 1.804v5.656c0 .583-.206 1.004-.62 1.265-.414.26-1.042.39-1.885.39v-7.701c0-1.349-.552-2.023-1.655-2.023-.66 0-1.184.23-1.575.69-.39.46-.587 1.057-.587 1.793v5.586c0 .583-.206 1.004-.62 1.265-.414.26-1.05.39-1.908.39v-9.862zM90.128 21.816c.483-.337.725-.812.725-1.425s-.242-1.092-.725-1.437c-.482-.345-1.138-.517-1.965-.517-.751 0-1.345.172-1.782.517-.437.345-.655.824-.655 1.437 0 .629.214 1.107.644 1.437.429.33 1.019.494 1.77.494.842 0 1.506-.168 1.988-.506m-4.793 1.977a3.682 3.682 0 0 1-1.563-1.333c-.383-.582-.575-1.264-.575-2.046 0-.797.203-1.49.61-2.08.405-.59.961-1.043 1.666-1.357.705-.314 1.494-.47 2.368-.47 1.394 0 2.567.474 3.517 1.424l.115-.115a6.188 6.188 0 0 0-.667-.598v-.643c0-.675-.23-1.207-.689-1.598-.46-.39-1.104-.586-1.931-.586-.736 0-1.38.142-1.932.425a3.323 3.323 0 0 0-1.333 1.253 1.834 1.834 0 0 1-.77-.506c-.207-.23-.31-.475-.31-.736 0-.444.207-.858.62-1.24.414-.384.97-.687 1.667-.909a7.425 7.425 0 0 1 2.265-.334c1.563 0 2.777.372 3.644 1.116.865.743 1.299 1.758 1.299 3.046v5.954c0 .629-.193 1.084-.575 1.368-.384.283-.997.425-1.84.425v-.989c.276-.275.46-.474.552-.597l-.115-.092c-.49.552-1.038.97-1.643 1.253-.606.283-1.33.425-2.173.425-.813 0-1.548-.153-2.207-.46M95.542 14.39c0-1.363.82-2.045 2.46-2.045v1.402c-.184.2-.36.437-.529.713l.138.092a4.871 4.871 0 0 1 1.759-1.61 4.923 4.923 0 0 1 2.402-.597c.797 0 1.495.172 2.092.517.598.345 1.061.824 1.39 1.437.33.613.496 1.295.496 2.046v6.253c0 .583-.216 1.004-.644 1.265-.43.26-1.073.39-1.932.39V16.69c0-.628-.187-1.138-.562-1.529-.377-.391-.924-.586-1.644-.586-.798 0-1.472.249-2.024.747-.551.498-.827 1.108-.827 1.827v5.45c0 .582-.211 1.003-.633 1.264-.421.26-1.068.39-1.942.39v-9.862zM115.313 17.241v-.552c0-.69-.234-1.244-.701-1.666-.468-.422-1.085-.632-1.851-.632-.767 0-1.384.21-1.85.632-.468.422-.702.977-.702 1.666v.552h5.104zm-5.116 6.46c-.774-.368-1.383-.877-1.827-1.528a3.8 3.8 0 0 1-.667-2.196v-3.172c0-.843.23-1.602.69-2.276.46-.675 1.08-1.208 1.862-1.598a5.577 5.577 0 0 1 2.529-.586c.904 0 1.728.184 2.471.552a4.407 4.407 0 0 1 1.77 1.552 4 4 0 0 1 .656 2.24v1.357c0 .307-.115.567-.345.781-.23.215-.521.323-.874.323h-6.253v.666c0 .705.218 1.273.655 1.701.437.43 1.077.644 1.92.644.827 0 1.448-.18 1.862-.54.414-.36.621-.84.621-1.437a2.75 2.75 0 0 1 .414-.023c.52 0 .938.12 1.252.356.314.238.472.572.472 1 0 .46-.207.9-.62 1.322-.414.422-.978.763-1.69 1.024-.713.26-1.491.39-2.334.39-.935 0-1.79-.184-2.564-.552z"/>
    </g>
</svg>
