<svg xmlns="http://www.w3.org/2000/svg" width="27" height="28" viewBox="0 0 27 28">
    <g fill="none" fill-rule="evenodd">
        <path fill="#FFF" d="M2.39 22.324L9.25 23l1.488 3 2.339 1.028L15 26l1.725-3L23 22.324l1.572-.546V20L23 18.835l-.915-2.11v-6.409l-3.623-4.99-2.847-1.507L15 1.236h-2.408l-1.854 1.297-1.488 2.19L5 7.904l-1.058 4.03v5.845l-1.553 1.28-1.326 1.687z"/>
        <path fill="#C93" fill-rule="nonzero" d="M13.067 0c2.115 0 3.843 1.563 3.94 3.525 3.686 1.463 6.168 4.876 6.168 8.74v5.33c1.652.12 2.958 1.418 2.958 3 0 1.66-1.438 3.008-3.21 3.008H3.21c-1.773 0-3.21-1.346-3.21-3.008 0-1.582 1.304-2.88 2.958-3v-5.33c0-3.865 2.482-7.278 6.168-8.74C9.223 1.562 10.953 0 13.066 0zM10.73 5.432c-3.137.943-5.307 3.69-5.307 6.832v5.553c0 1.15-.994 2.084-2.218 2.084-.408 0-.74.312-.74.694 0 .383.332.694.744.694h19.713c.411 0 .745-.312.745-.694 0-.382-.334-.694-.74-.694-1.227 0-2.219-.93-2.219-2.084v-5.553c0-3.141-2.17-5.889-5.307-6.832l-.856-.258V3.699c0-.764-.663-1.385-1.48-1.385-.815 0-1.479.622-1.479 1.385v1.475l-.856.258zM8.382 23.603h2.466c0 1.15.993 2.083 2.219 2.083 1.225 0 2.219-.932 2.219-2.083h2.465c0 2.429-2.097 4.397-4.684 4.397s-4.685-1.968-4.685-4.397z"/>
    </g>
</svg>
